<?xml version="1.0" standalone="no"?>
<!DOCTYPE svg PUBLIC "-//W3C//DTD SVG 20010904//EN"
 "http://www.w3.org/TR/2001/REC-SVG-20010904/DTD/svg10.dtd">
<svg version="1.0" xmlns="http://www.w3.org/2000/svg"
 width="1024.000000pt" height="1024.000000pt" viewBox="0 0 1024.000000 1024.000000"
 preserveAspectRatio="xMidYMid meet">
<metadata>
Created by potrace 1.14, written by Peter Selinger 2001-2017
</metadata>
<g transform="translate(0.000000,1024.000000) scale(0.100000,-0.100000)"
fill="#000000" stroke="none">
<path d="M4875 9105 c-122 -19 -160 -32 -282 -92 -230 -113 -419 -315 -504
-536 l-22 -57 -116 -61 c-183 -97 -320 -199 -468 -350 -178 -183 -307 -357
-402 -546 -113 -224 -158 -407 -166 -670 -4 -131 -30 -384 -40 -401 -1 -1 -41
22 -88 51 -198 125 -405 168 -556 117 -45 -15 -92 -20 -193 -22 -128 -3 -136
-4 -200 -36 -40 -20 -81 -49 -103 -74 -84 -99 -86 -263 -5 -391 16 -26 30 -52
30 -57 0 -4 -17 -19 -37 -31 -104 -64 -142 -124 -149 -233 -7 -95 7 -121 61
-121 37 0 41 3 52 35 7 19 12 56 12 82 1 40 7 54 35 85 19 21 54 49 78 62 l43
23 65 -43 c106 -70 156 -82 373 -87 l187 -4 0 -66 c0 -258 134 -517 345 -667
74 -53 206 -120 290 -147 63 -20 226 -48 283 -48 30 0 33 -2 27 -22 -11 -36
-49 -99 -96 -155 -88 -109 -230 -195 -342 -208 l-57 -6 6 108 c9 162 -15 251
-99 361 -147 193 -527 323 -736 253 -134 -46 -232 -140 -282 -269 -34 -90 -38
-251 -9 -366 42 -169 130 -323 259 -455 118 -119 247 -196 391 -232 42 -11 63
-23 90 -54 59 -67 126 -129 169 -155 22 -14 41 -30 41 -36 0 -6 -18 -24 -40
-39 -60 -42 -200 -192 -253 -272 -142 -214 -206 -470 -179 -712 22 -192 27
-203 139 -308 53 -51 98 -91 100 -90 1 2 -9 30 -22 62 -13 33 -36 105 -51 160
-25 90 -27 117 -28 270 -1 148 2 181 22 255 45 165 146 336 266 453 133 128
239 189 493 285 98 37 208 84 243 104 215 120 359 298 425 523 23 79 27 116
34 305 6 157 12 225 23 250 l15 35 21 -67 c46 -145 100 -260 181 -383 l46 -70
0 -300 c0 -254 -3 -312 -18 -380 -35 -153 -117 -285 -232 -373 -56 -42 -230
-133 -349 -181 -231 -94 -383 -226 -467 -405 -76 -162 -80 -415 -9 -626 45
-135 140 -315 227 -430 76 -99 126 -142 218 -186 118 -55 287 -124 283 -115
-2 4 -64 62 -138 128 -230 207 -296 286 -385 467 -119 244 -150 459 -93 646
30 97 54 138 126 213 86 88 127 114 349 213 102 46 203 95 224 109 l38 25 7
-37 c9 -46 -11 -154 -38 -207 -11 -22 -44 -81 -73 -131 -68 -115 -95 -203
-102 -330 -9 -158 33 -319 119 -462 67 -111 260 -296 453 -433 264 -188 333
-250 409 -364 l36 -54 65 -4 c39 -2 65 1 65 7 0 22 -53 122 -96 182 -56 78
-126 139 -379 328 -316 236 -444 376 -506 555 -20 55 -23 86 -23 205 -1 158
11 205 77 308 101 158 128 244 126 404 l-1 112 35 43 c57 70 123 211 159 338
18 63 22 114 27 326 l6 252 80 -75 c147 -138 306 -229 480 -274 120 -31 332
-33 445 -5 91 22 207 69 275 110 96 58 216 157 265 220 l30 39 0 -206 c0 -239
10 -326 52 -451 36 -110 66 -171 123 -252 l43 -62 4 -138 c5 -160 25 -227 99
-336 178 -262 147 -571 -82 -832 -47 -54 -205 -182 -439 -356 -226 -169 -283
-230 -345 -364 -19 -41 -35 -76 -35 -78 0 -2 30 -2 67 0 l68 4 30 50 c50 84
149 175 375 345 252 188 324 250 402 341 141 165 208 345 208 557 0 146 -32
244 -126 391 -70 110 -102 216 -89 301 l6 43 28 -19 c16 -11 82 -46 147 -77
324 -153 343 -164 418 -238 214 -213 231 -520 50 -891 -81 -165 -230 -334
-497 -563 -37 -32 -38 -33 -10 -26 34 9 250 97 304 125 128 65 329 364 408
608 43 131 54 211 49 357 -4 107 -9 143 -32 209 -49 142 -139 264 -260 349
-34 24 -155 88 -271 142 -115 54 -240 117 -276 140 -125 81 -207 197 -255 359
-14 50 -18 113 -21 385 l-4 325 49 71 c27 38 66 102 85 140 31 62 97 242 109
299 3 14 10 3 23 -35 13 -42 19 -106 25 -270 9 -237 20 -290 87 -423 67 -133
167 -244 299 -333 93 -62 154 -90 314 -146 279 -98 449 -213 591 -401 78 -103
132 -214 165 -342 23 -84 27 -121 27 -235 0 -87 -6 -160 -16 -205 -19 -85 -72
-257 -87 -286 -10 -18 -9 -19 7 -11 10 6 57 48 105 94 l87 83 18 80 c28 126
26 370 -6 495 -61 242 -211 478 -396 620 l-56 43 25 16 c31 21 107 92 174 164
29 31 62 57 72 57 33 0 162 51 230 90 370 216 571 701 422 1020 -31 67 -129
168 -193 198 -150 72 -337 49 -592 -72 -223 -106 -331 -295 -311 -542 8 -95
12 -92 -78 -73 -86 18 -184 76 -262 154 -70 70 -129 156 -141 206 l-6 26 103
6 c366 19 690 257 796 587 29 89 42 170 42 257 l0 73 153 0 c212 0 318 27 424
106 39 30 40 30 96 -2 51 -28 107 -86 108 -112 0 -9 2 -38 3 -64 2 -59 28 -90
70 -86 45 4 58 37 52 126 -9 112 -55 180 -156 232 l-39 20 30 48 c94 148 90
315 -9 420 -75 81 -121 97 -282 98 -101 1 -148 6 -185 19 -27 10 -89 20 -137
23 -73 4 -101 0 -177 -22 -99 -28 -192 -72 -286 -135 l-60 -40 -7 47 c-4 26
-13 71 -19 100 -6 29 -10 111 -10 181 1 140 -12 290 -35 391 -70 310 -245 613
-522 902 -154 160 -288 260 -502 375 l-75 40 -55 105 c-115 217 -274 381 -470
486 -98 53 -180 79 -298 97 -118 18 -385 18 -497 0z m185 -290 l0 -164 -52 -5
c-29 -3 -82 -8 -118 -11 -36 -3 -80 -9 -99 -12 l-34 -6 6 59 c8 79 62 186 127
249 44 43 57 50 103 55 28 3 55 4 60 2 4 -2 7 -77 7 -167z m247 147 c36 -20
112 -113 144 -177 35 -71 52 -172 27 -162 -9 3 -53 8 -99 12 -46 3 -108 8
-136 11 l-53 5 0 163 c0 89 2 165 5 168 8 7 87 -7 112 -20z m-590 -60 c-46
-48 -84 -145 -92 -231 l-7 -77 -116 -28 c-65 -16 -146 -39 -182 -52 -35 -13
-66 -21 -68 -19 -8 7 47 92 108 169 72 91 159 162 282 231 94 53 121 55 75 7z
m1034 -106 c41 -34 95 -87 120 -117 43 -51 129 -173 129 -183 0 -2 -44 11 -97
29 -54 18 -129 41 -168 50 -38 9 -77 18 -86 21 -12 3 -18 22 -22 77 -5 56 -15
89 -44 147 -21 41 -49 87 -62 103 -22 27 -19 26 67 -18 49 -25 123 -74 163
-109z m-306 -302 c425 -52 804 -209 1083 -449 157 -135 279 -275 426 -488 125
-182 209 -411 230 -630 l7 -67 -91 91 c-90 89 -92 92 -116 177 -74 255 -268
526 -534 747 -268 222 -591 363 -986 432 -140 24 -508 24 -651 0 -453 -77
-812 -245 -1119 -524 -212 -192 -382 -452 -435 -662 l-21 -83 -95 -93 -95 -93
7 62 c28 254 110 468 261 683 242 343 456 533 767 683 417 201 878 273 1362
214z m-45 -314 c471 -60 883 -276 1184 -622 46 -53 103 -124 126 -158 43 -63
135 -249 127 -256 -2 -2 -72 29 -154 70 l-151 75 -67 98 c-222 322 -433 472
-806 573 -453 124 -969 78 -1374 -120 -128 -63 -221 -128 -313 -219 -75 -74
-176 -201 -213 -266 -37 -65 -51 -78 -116 -104 -29 -11 -93 -41 -144 -66 -50
-26 -93 -44 -96 -42 -2 3 20 54 50 114 181 360 575 688 992 825 190 62 332 92
540 112 64 6 323 -3 415 -14z m-343 -522 c-5 -250 -13 -301 -63 -400 -121
-239 -516 -531 -844 -624 -38 -11 -124 -18 -285 -23 -200 -6 -235 -9 -269 -26
-78 -39 -97 -104 -41 -141 23 -15 27 -15 58 4 27 17 57 22 175 28 l142 7 -16
-54 c-31 -108 -95 -220 -162 -286 -112 -109 -293 -183 -446 -183 -170 1 -253
53 -272 169 l-6 41 172 2 173 3 20 27 c23 31 18 67 -12 85 -13 8 -76 13 -190
13 l-171 2 0 77 c0 141 56 289 155 412 96 119 193 187 450 313 255 126 289
152 324 243 42 110 133 216 253 293 230 149 527 242 797 248 l63 2 -5 -232z
m463 197 c400 -82 712 -293 789 -537 17 -53 75 -100 188 -153 307 -145 390
-194 497 -295 142 -134 223 -305 229 -485 l2 -69 -30 -7 c-16 -4 -96 -7 -176
-8 -125 -1 -148 -3 -162 -18 -25 -29 -26 -73 -1 -97 13 -13 44 -16 180 -16
182 0 182 0 170 -65 -9 -47 -65 -99 -133 -125 -71 -26 -184 -27 -287 0 -221
56 -377 206 -445 428 l-19 62 37 1 c149 2 238 -3 258 -17 48 -30 103 -8 103
42 0 39 -17 62 -63 86 -38 20 -63 22 -272 29 -191 6 -243 11 -305 29 -211 60
-520 256 -696 441 -101 107 -150 190 -172 295 -8 37 -18 431 -13 508 1 15 187
-2 321 -29z m-324 -755 c109 -166 411 -400 670 -521 81 -38 264 -99 295 -99
12 0 23 -20 39 -72 48 -159 109 -269 203 -365 53 -55 63 -71 74 -120 6 -32 12
-74 12 -94 1 -44 -28 -142 -69 -232 -50 -110 -37 -142 37 -96 31 19 91 87 118
134 9 15 14 13 39 -25 24 -37 26 -45 16 -70 -17 -40 -112 -127 -164 -150 -24
-11 -74 -23 -112 -27 l-68 -8 -17 -95 c-26 -148 -125 -469 -184 -597 -67 -144
-213 -336 -366 -476 -282 -259 -636 -316 -964 -152 -119 59 -202 123 -321 248
-117 122 -198 233 -253 343 -65 130 -174 469 -201 624 -6 36 -13 74 -16 86 -3
18 -13 22 -76 28 -115 10 -205 64 -263 157 -31 48 -31 53 2 94 l27 33 26 -42
c29 -45 75 -88 122 -112 26 -14 32 -14 44 -2 17 17 6 55 -44 154 -43 85 -66
177 -53 217 5 18 12 50 16 72 5 31 23 56 83 120 103 109 172 243 206 398 5 19
13 27 28 27 69 0 286 85 435 170 256 147 454 321 555 487 l52 84 14 -28 c8
-15 34 -57 58 -93z m-2731 -655 c183 -38 396 -193 425 -309 6 -22 20 -70 31
-105 l20 -63 -23 -62 c-19 -50 -23 -81 -23 -176 0 -125 10 -157 77 -242 21
-27 32 -55 38 -98 18 -127 78 -254 166 -353 19 -20 34 -41 34 -46 0 -14 -105
21 -183 59 -243 121 -407 363 -407 601 0 123 -9 167 -42 200 l-30 29 -137 0
c-76 0 -167 3 -201 7 l-64 6 47 14 c50 14 76 46 64 78 -11 27 -37 29 -106 6
-98 -32 -138 -28 -205 17 -86 58 -146 155 -146 236 1 51 34 110 76 137 35 21
54 24 184 30 81 3 158 11 175 18 29 13 101 28 140 30 11 0 52 -6 90 -14z
m5534 -17 c52 -17 80 -20 148 -15 151 9 236 -23 279 -105 48 -92 -34 -256
-158 -316 -56 -28 -94 -28 -179 0 -77 25 -99 20 -99 -20 0 -33 23 -57 62 -67
64 -16 5 -25 -164 -25 -152 0 -184 -3 -209 -17 -46 -28 -59 -67 -59 -190 -1
-200 -57 -339 -191 -473 -95 -95 -181 -149 -294 -187 -124 -42 -123 -42 -60
34 79 96 133 211 152 326 13 75 20 97 44 122 79 84 101 242 55 389 l-26 85 20
63 c11 35 24 82 30 105 20 79 155 200 295 264 137 62 226 69 354 27z m-1219
-583 c138 -32 276 -22 390 29 20 9 39 -39 47 -120 7 -78 -8 -123 -57 -168
-124 -112 -345 -43 -465 143 -39 61 -75 139 -75 161 0 5 19 1 43 -9 23 -10 76
-26 117 -36z m-3160 32 c0 -7 -16 -46 -35 -86 -44 -92 -136 -187 -217 -224
-181 -83 -348 -10 -348 152 0 57 18 148 30 156 4 3 28 -4 53 -15 99 -44 270
-43 422 3 99 30 95 30 95 14z m-85 -461 c26 -32 63 -72 81 -88 l34 -30 0 -204
0 -204 -27 6 c-45 11 -164 73 -220 115 -117 88 -196 188 -232 297 -33 96 -32
98 45 94 50 -3 85 2 147 22 45 14 91 33 101 41 11 8 20 14 21 12 2 -1 24 -29
50 -61z m3383 -6 c29 -7 81 -10 117 -8 36 2 65 1 65 -2 0 -3 -6 -28 -14 -56
-31 -116 -117 -236 -231 -323 -66 -49 -190 -116 -237 -127 l-28 -6 0 211 c0
134 4 211 10 211 18 0 88 70 120 120 l31 49 57 -28 c31 -16 81 -34 110 -41z
m-3068 -364 c0 -214 -8 -276 -36 -276 -7 0 -18 9 -24 19 -11 21 -15 428 -4
455 4 10 18 16 35 16 l29 0 0 -214z m2605 -26 c0 -233 0 -235 -22 -238 -38 -6
-48 49 -45 267 1 106 5 197 8 203 3 5 18 8 32 6 l27 -3 0 -235z m-4102 5 c173
-45 327 -133 384 -219 50 -73 64 -134 62 -256 -3 -137 0 -232 7 -239 3 -3 58
-6 122 -6 137 1 204 20 317 90 116 72 291 270 312 353 5 22 10 24 42 18 20 -3
44 -6 53 -6 11 0 25 -17 37 -45 13 -29 32 -52 52 -63 l31 -17 -5 -115 c-12
-238 -58 -354 -199 -506 -102 -109 -212 -174 -413 -244 -49 -18 -130 -50 -178
-73 -51 -23 -91 -37 -95 -31 -4 5 -27 22 -52 38 -68 44 -154 131 -199 200 -77
119 -108 273 -89 437 6 52 11 109 11 128 0 39 -25 63 -63 59 -79 -9 -115 -244
-69 -454 11 -53 18 -98 16 -101 -3 -2 -39 15 -82 39 -215 120 -372 329 -421
561 -39 185 7 327 138 426 55 41 179 53 281 26z m5792 -12 c100 -53 164 -163
172 -296 11 -178 -64 -366 -212 -533 -80 -91 -208 -182 -293 -208 -21 -7 -21
-6 -11 21 38 100 48 257 24 393 -22 124 -61 164 -122 125 -27 -18 -27 -7 -4
-184 24 -178 -26 -361 -137 -498 -36 -45 -112 -105 -179 -143 l-42 -23 -78 35
c-43 20 -109 48 -148 61 -139 49 -228 88 -283 124 -176 112 -300 281 -336 456
-20 98 -22 307 -3 307 19 0 55 41 67 76 10 27 17 32 65 41 l55 10 26 -56 c73
-160 262 -334 427 -391 67 -23 271 -39 295 -22 9 6 13 57 15 198 2 169 4 194
23 235 58 124 190 212 419 281 81 24 204 20 260 -9z"/>
<path d="M4276 6369 c-46 -11 -76 -34 -76 -59 0 -14 14 -19 82 -25 98 -8 170
-29 347 -102 117 -48 137 -53 157 -42 29 15 34 37 16 69 -19 35 -62 61 -167
103 -147 58 -268 77 -359 56z"/>
<path d="M5820 6373 c-89 -15 -271 -81 -331 -120 -44 -29 -63 -66 -49 -93 19
-35 46 -33 147 11 166 71 262 100 366 112 103 11 113 18 75 54 -35 32 -132 49
-208 36z"/>
<path d="M4285 6086 c-38 -12 -89 -32 -112 -44 -53 -28 -63 -27 -123 3 -61 31
-70 20 -35 -41 29 -50 76 -84 116 -84 24 0 90 17 130 34 13 6 18 -2 23 -41 15
-101 61 -153 144 -161 75 -7 119 18 149 85 16 35 24 66 21 89 -2 19 -2 34 2
34 17 -1 126 -64 165 -96 32 -26 49 -34 56 -27 17 17 -22 91 -75 144 -118 117
-298 159 -461 105z"/>
<path d="M5703 6095 c-87 -24 -146 -57 -201 -112 -50 -50 -82 -103 -82 -138 0
-22 12 -19 61 20 24 19 71 48 104 64 l60 31 7 -56 c14 -104 65 -154 156 -154
90 0 152 66 152 163 0 26 2 47 3 47 2 0 30 -9 62 -20 69 -24 96 -25 134 -6 48
25 115 115 98 132 -2 2 -30 -8 -62 -22 l-58 -27 -51 23 c-151 67 -276 85 -383
55z"/>
<path d="M4982 5148 c-17 -17 -15 -32 8 -53 23 -20 64 -14 74 11 14 37 -53 71
-82 42z"/>
<path d="M5212 5144 c-26 -18 -27 -27 -6 -48 20 -21 26 -20 58 5 21 17 24 24
16 40 -13 23 -38 24 -68 3z"/>
<path d="M4927 4775 c-75 -13 -127 -35 -127 -54 0 -11 28 -17 115 -26 33 -4
85 -15 115 -26 69 -24 108 -24 195 1 39 11 103 23 143 27 80 7 96 17 64 43
-38 31 -150 46 -307 40 -11 -1 -42 1 -70 4 -27 3 -85 -1 -128 -9z"/>
<path d="M2066 6259 c-50 -59 -19 -139 53 -139 51 0 81 32 81 87 0 79 -84 111
-134 52z"/>
<path d="M2385 6282 c-65 -13 -107 -89 -86 -154 19 -58 45 -78 101 -78 87 0
146 75 121 153 -18 53 -81 90 -136 79z"/>
<path d="M8065 6264 c-18 -19 -25 -38 -25 -65 0 -50 30 -79 82 -79 32 0 41 5
58 33 11 17 20 44 20 58 0 38 -42 79 -80 79 -21 0 -39 -9 -55 -26z"/>
<path d="M7762 6255 c-116 -97 -6 -259 128 -190 74 38 78 150 8 199 -35 25
-101 20 -136 -9z"/>
<path d="M5088 1493 c-14 -25 -15 -47 -5 -200 l11 -173 28 0 28 0 0 105 c0 57
5 136 12 174 10 61 10 72 -5 95 -22 34 -49 33 -69 -1z"/>
</g>
</svg>
